<?xml version="1.0" encoding="UTF-8"?>
<svg width="396px" height="209px" viewBox="0 0 396 209" version="1.1" xmlns="http://www.w3.org/2000/svg" xmlns:xlink="http://www.w3.org/1999/xlink">
    <!-- Generator: Sketch 52.5 (67469) - http://www.bohemiancoding.com/sketch -->
    <title>Group</title>
    <desc>Created with Sketch.</desc>
    <g id="404" stroke="none" stroke-width="1" fill="none" fill-rule="evenodd">
        <g transform="translate(-442.000000, -232.000000)" id="Group">
            <g transform="translate(445.000000, 232.000000)">
                <path d="M111.269527,120.207025 L111.269527,66.9687482 L73.6171865,120.207025 L111.269527,120.207025 Z M111.515621,161.796866 L111.515621,133.085931 L60,133.085931 L60,118.648432 L113.812496,44 L126.281245,44 L126.281245,120.207025 L143.589837,120.207025 L143.589837,133.085931 L126.281245,133.085931 L126.281245,161.796866 L111.515621,161.796866 Z M194.613271,44.328125 C209.816471,44.328125 220.808548,50.5897806 227.589831,63.1132798 C232.839857,72.7930149 235.46483,86.0546001 235.46483,102.898433 C235.46483,118.867262 233.085948,132.07416 228.328112,142.519524 C221.437453,157.503972 210.171942,164.996084 194.53124,164.996084 C180.421795,164.996084 169.921901,158.871146 163.031242,146.621086 C157.289026,136.394473 154.417962,122.668049 154.417962,105.441402 C154.417962,92.0975858 156.1406,80.64067 159.58593,71.0703104 C166.039087,53.2420977 177.71475,44.328125 194.613271,44.328125 Z M194.449208,151.542961 C202.105496,151.542961 208.203091,148.15237 212.742176,141.371086 C217.281261,134.589803 219.550769,121.957118 219.550769,103.472652 C219.550769,90.128836 217.910161,79.150431 214.628894,70.5371073 C211.347628,61.9237837 204.976599,57.6171865 195.515615,57.6171865 C186.820259,57.6171865 180.462901,61.7050359 176.44335,69.8808574 C172.423799,78.0566789 170.414054,90.1014794 170.414054,106.01562 C170.414054,117.992242 171.699197,127.617145 174.269522,134.890618 C178.207042,145.992235 184.933537,151.542961 194.449208,151.542961 Z M298.136701,120.207025 L298.136701,66.9687482 L260.48436,120.207025 L298.136701,120.207025 Z M298.382794,161.796866 L298.382794,133.085931 L246.867173,133.085931 L246.867173,118.648432 L300.679669,44 L313.148418,44 L313.148418,120.207025 L330.457011,120.207025 L330.457011,133.085931 L313.148418,133.085931 L313.148418,161.796866 L298.382794,161.796866 Z" id="404" fill="#000000" opacity="0.149999991"></path>
                <path d="M192.214843,118.999997 L197.656249,118.999997 L197.656249,124.687497 L192.214843,124.687497 L192.214843,118.999997 Z M183,97.0976552 C183,93.1601359 184.111968,89.9928501 186.335937,87.5957028 C188.559907,85.1985556 191.613261,84 195.496093,84 C199.087256,84 201.962878,85.0253803 204.123045,87.0761716 C206.283212,89.126963 207.363279,91.7473793 207.363279,94.9374992 C207.363279,96.8698003 206.966799,98.4374929 206.173826,99.6406238 C205.380854,100.843755 203.78126,102.611966 201.374999,104.945311 C199.62499,106.640632 198.490236,108.076164 197.970702,109.251951 C197.451168,110.427738 197.191405,112.164049 197.191405,114.460935 L192.324218,114.460935 C192.324218,111.854151 192.634111,109.753261 193.253905,108.158201 C193.8737,106.563141 195.231759,104.735686 197.328124,102.67578 L199.515624,100.515624 C200.171877,99.895829 200.700517,99.2487001 201.101561,98.5742176 C201.830731,97.389316 202.195311,96.1588596 202.195311,94.8828117 C202.195311,93.0963445 201.662113,91.546881 200.595702,90.2343745 C199.52929,88.9218681 197.765636,88.2656247 195.304687,88.2656247 C192.260401,88.2656247 190.154953,89.3958216 188.988281,91.6562494 C188.332028,92.9140681 187.958333,94.7278519 187.867187,97.0976552 L183,97.0976552 Z" id="?" fill="#5FB422"></path>
                <path d="M2.16520722,29.6899707 C8.82037759,54.613837 12.1501287,79.5539261 12.1501287,104.5 C12.1501287,129.446075 8.82037719,154.386166 2.16519928,179.310032 C66.4291688,195.771243 130.67871,204 194.92297,204 C259.167227,204 323.416766,195.771243 387.680732,179.310029 C381.025562,154.386163 377.695811,129.446074 377.695811,104.5 C377.695811,79.5539246 381.025562,54.613834 387.68074,29.689968 C323.416771,13.2287574 259.167229,5 194.92297,5 C130.678712,5 66.4291733,13.2287568 2.16520609,29.6899663 Z" id="Rectangle" stroke="#D9D9D9" stroke-width="10" opacity="0.300000012" fill-rule="nonzero"></path>
            </g>
        </g>
    </g>
</svg>