<?xml version="1.0" encoding="UTF-8"?>
<svg width="320px" height="50px" viewBox="0 0 320 50" version="1.1" xmlns="http://www.w3.org/2000/svg" xmlns:xlink="http://www.w3.org/1999/xlink">
    <!-- Generator: Sketch 51.2 (57519) - http://www.bohemiancoding.com/sketch -->
    <title>Rectangle Copy</title>
    <desc>Created with Sketch.</desc>
    <defs></defs>
    <g id="Symbols" stroke="none" stroke-width="1" fill="none" fill-rule="evenodd">
        <g id="tabs/all_advice" fill="#5FB422">
            <g id="Group-2-Copy-6">
                <g id="Group">
                    <path d="M4,-7.46069873e-14 L316,-7.46069873e-14 C318.209139,-7.50127995e-14 320,1.790861 320,4 L320,40 C320,42.209139 318.209139,44 316,44 C267.804005,44 219.608009,44 171.412014,44 C167.608009,44 163.804005,49.7461017 160,49.7461017 C156.614265,49.7461017 153.228531,44 149.842796,44 C101.228531,44 52.6142653,44 4,44 L4,44 C1.790861,44 2.705415e-16,42.209139 0,40 L0,4 C-2.705415e-16,1.790861 1.790861,-7.4201175e-14 4,-7.46069873e-14 Z" id="Rectangle-Copy"></path>
                </g>
            </g>
        </g>
    </g>
</svg>