<?xml version="1.0" encoding="UTF-8"?>
<svg width="245px" height="68px" viewBox="0 0 245 68" version="1.1" xmlns="http://www.w3.org/2000/svg" xmlns:xlink="http://www.w3.org/1999/xlink">
    <!-- Generator: Sketch 51.2 (57519) - http://www.bohemiancoding.com/sketch -->
    <title>Group</title>
    <desc>Created with Sketch.</desc>
    <defs></defs>
    <g id="Symbols" stroke="none" stroke-width="1" fill="none" fill-rule="evenodd">
        <g id="tabs/all_advice" fill="#5FB422">
            <g id="Group-2-Copy-6">
                <g id="Group">
                    <path d="M6,-7.10542736e-14 L239,-7.63833441e-14 C242.313708,-7.69920625e-14 245,2.6862915 245,6 L245,54.1454163 C245,57.4591248 242.313708,60.1454163 239,60.1454163 C203.079108,60.1454163 167.158215,60.1454163 131.237323,60.1454163 C128.324882,60.1454163 125.412441,68 122.5,68 C119.907797,68 117.315594,60.1454163 114.723391,60.1454163 C78.4822604,60.1454163 42.2411302,60.1454163 6,60.1454163 L6,60.1454163 C2.6862915,60.1454163 4.05812251e-16,57.4591248 0,54.1454163 L8.8817842e-16,6 C4.82366169e-16,2.6862915 2.6862915,-6.68928415e-14 6,-6.75015599e-14 Z" id="Rectangle-Copy"></path>
                </g>
            </g>
        </g>
    </g>
</svg>