<?xml version="1.0" encoding="UTF-8"?>
<svg width="438px" height="59px" viewBox="0 0 438 59" version="1.1" xmlns="http://www.w3.org/2000/svg" xmlns:xlink="http://www.w3.org/1999/xlink">
    <!-- Generator: Sketch 52.4 (67378) - http://www.bohemiancoding.com/sketch -->
    <title>Group 39</title>
    <desc>Created with Sketch.</desc>
    <defs>
        <polygon id="path-1" points="1.2918 0.02685 32.358 0.02685 32.358 37.06485 1.2918 37.06485"></polygon>
        <polygon id="path-3" points="0.0003 0.921 61.8423 0.921 61.8423 54.7632 0.0003 54.7632"></polygon>
    </defs>
    <g id="design" stroke="none" stroke-width="1" fill="none" fill-rule="evenodd">
        <g id="about_company" transform="translate(-421.000000, -411.000000)">
            <g id="Group-39" transform="translate(421.000000, 410.000000)">
                <polygon id="Fill-1" fill="#505455" points="120.9405 9.6087 130.155 9.6087 129.6885 16.2792 120.474 16.2792"></polygon>
                <g id="Group-38" transform="translate(0.000000, 0.579450)">
                    <path d="M371.0244,41.15985 C375.5799,41.15985 375.8694,36.92385 376.1139,33.48435 C374.0589,33.48435 372.1149,33.38085 370.7349,34.04835 C369.2484,34.76835 368.1384,36.00285 368.0124,37.79985 C367.8834,39.64785 369.1794,41.15985 371.0244,41.15985 Z M375.2574,42.91335 L375.1554,42.91335 C373.0629,44.85435 371.0859,46.27035 367.3209,46.27035 C361.2129,46.27035 358.6464,42.79185 358.6464,38.23335 C358.6464,33.09735 363.9084,29.79885 373.2504,29.79885 L376.3329,29.79885 C376.4919,27.53985 377.2764,23.81535 373.4064,23.81535 C370.6614,23.81535 369.9939,26.42535 369.9369,27.68385 L361.0599,27.68385 C361.2624,24.32085 362.7159,22.07385 365.4174,20.89335 C368.1744,19.66185 371.5284,19.35285 374.4054,19.35285 C379.6404,19.35285 386.0649,21.96135 385.6314,28.35135 L384.9024,40.74885 C384.8289,41.82735 384.8139,42.95685 384.9579,46.03635 L375.7554,46.03635 L375.2574,42.91335 Z" id="Fill-2" fill="#505455"></path>
                    <g id="Group-6" transform="translate(405.000000, 9.000000)">
                        <mask id="mask-2" fill="white">
                            <use xlink:href="#path-1"></use>
                        </mask>
                        <g id="Clip-5"></g>
                        <path d="M12.0528,22.69035 L21.2808,11.20485 L32.3583,11.20485 L22.4208,22.12635 L31.8393,37.06485 L19.8363,37.06485 L12.0528,22.69035 Z M1.2918,37.06485 L3.8853,0.02685 L13.6413,0.02685 L11.0478,37.06485 L1.2918,37.06485 Z" id="Fill-4" fill="#505455" mask="url(#mask-2)"></path>
                    </g>
                    <path d="M248.1285,24.04455 L248.2305,24.04455 C250.734,20.82255 253.617,20.28555 256.7925,20.28555 L256.215,28.55205 C255.558,28.50105 254.892,28.50105 254.223,28.50105 C247.794,28.50105 247.5975,32.18505 247.3575,36.45255 L246.7785,46.06455 L236.769,46.06455 L238.107,26.91555 C238.269,24.60555 238.326,23.06505 238.263,20.22255 L247.803,20.22255 L248.1285,24.04455 Z" id="Fill-7" fill="#505455"></path>
                    <polygon id="Fill-9" fill="#505455" points="256.0752 46.06485 258.6687 9.02685 268.1097 9.02685 265.5192 46.06485"></polygon>
                    <path d="M187.7601,33.5082 C187.6101,36.6582 188.4006,41.1057 191.9346,41.1057 C196.4256,41.1057 197.5311,36.6297 197.6961,33.0492 C197.8431,29.8827 197.2191,25.1847 193.4091,25.1967 C188.5416,25.2117 187.9221,30.0852 187.7601,33.5082 Z M180.0231,9.0252 L189.6921,9.0252 L188.6556,23.7897 L188.8431,23.7897 C190.8006,21.4782 193.5171,19.5492 196.9986,19.5492 C204.9051,19.5492 207.9516,26.5077 207.5211,32.7942 C207.0831,39.1737 203.7486,46.4367 194.9196,46.4367 C191.9421,46.4367 189.0516,44.7987 187.7121,42.8847 L187.5081,42.8847 L186.9291,46.0347 L177.4311,46.0347 L180.0231,9.0252 Z" id="Fill-11" fill="#505455"></path>
                    <path d="M227.379,29.9619 C227.475,28.5759 227.1615,27.1899 226.467,26.1114 C225.7725,25.0329 224.718,24.3669 223.2225,24.4689 C219.822,24.6219 218.9175,27.0354 218.4555,29.9619 L227.379,29.9619 Z M217.998,34.8309 C217.713,38.3949 218.526,41.2689 222.171,41.2689 C224.892,41.2689 226.611,39.4569 226.611,37.7709 L235.647,37.7709 C235.4445,40.9104 233.256,43.3509 230.691,44.7879 C228.3315,46.2264 225.6255,46.4799 222.726,46.4799 C212.199,46.4799 208.1295,42.1134 208.7805,32.3184 C209.3205,24.1539 215.8965,19.3269 223.6485,19.4499 C234.021,19.6149 237.3555,25.7199 236.367,34.8309 L217.998,34.8309 Z" id="Fill-13" fill="#505455"></path>
                    <polygon id="Fill-15" fill="#505455" points="82.5498 9.02925 93.4038 9.02925 90.8028 46.05675 79.9503 46.05675"></polygon>
                    <polygon id="Fill-17" fill="#505455" points="105.4161 9.02925 92.4426 25.47975 104.0031 46.05675 117.0051 46.05675 104.0451 24.94125 117.6831 9.02925"></polygon>
                    <polygon id="Fill-19" fill="#505455" points="120.0432 20.2221 129.2577 20.2221 127.4487 46.0566 118.2342 46.0566"></polygon>
                    <path d="M140.91585,20.21985 L140.91285,23.71035 L141.01635,23.71035 C143.89185,19.94685 147.84885,19.60935 150.28035,19.60935 C153.80235,19.60935 157.40235,21.55785 158.12985,24.17235 C160.12185,21.08235 163.67535,19.55835 167.59635,19.45485 C173.23035,19.45485 177.14835,23.05935 176.74335,28.77435 L175.51785,46.05585 L165.60585,46.05585 L166.68135,30.88635 C166.81335,28.42635 166.61535,25.63335 163.37835,25.63335 C158.63085,25.63335 158.81685,30.93735 158.76735,31.24635 L157.75035,46.06335 L147.80985,46.06335 L148.90935,30.88635 C148.95585,28.36335 148.62735,25.63335 145.48335,25.63335 C140.47335,25.63335 140.57985,30.93735 140.58585,31.24635 L139.55535,46.06935 L129.33435,46.06935 L131.12985,20.22135 L140.91585,20.21985 Z" id="Fill-21" fill="#505455"></path>
                    <polygon id="Fill-23" fill="#505455" points="280.63185 58.5 271.66335 58.5 277.44435 46.488 267.97485 20.229 278.97135 20.229 283.23885 36.2625 290.02185 20.229 299.09535 20.229"></polygon>
                    <polygon id="Fill-25" fill="#505455" points="299.38185 25.42305 311.87385 25.42305 307.88085 33.50655 295.38885 33.50655"></polygon>
                    <path d="M331.93065,8.04045 C339.56265,8.04045 347.36415,11.37645 347.02515,20.64645 L336.51015,20.64645 C336.51015,18.21645 335.09415,15.44595 331.53465,15.44595 C327.97215,15.44595 323.78865,18.10245 323.05665,25.78995 C322.32165,33.47895 323.28165,39.30045 329.49915,39.30045 C334.86915,39.30045 335.94465,34.66545 336.05565,33.76095 L346.48815,33.76095 C346.48815,37.88745 343.06665,46.42395 328.93365,46.42395 C314.01015,46.42395 311.35215,35.56995 312.59415,25.45095 C313.63815,16.97895 319.66365,8.04045 331.93065,8.04045" id="Fill-27" fill="#505455"></path>
                    <polygon id="Fill-29" fill="#505455" points="347.22075 46.06485 349.81425 9.02685 359.25525 9.02685 356.66325 46.06485"></polygon>
                    <path d="M397.94835,24.04455 L398.05035,24.04455 C400.55535,20.82255 403.43835,20.28555 406.67235,20.28555 L406.09335,28.55205 C405.37785,28.50105 404.71035,28.50105 404.04435,28.50105 C397.61385,28.50105 397.41735,32.18505 397.17735,36.45255 L396.59835,46.06455 L386.59035,46.06455 L387.92835,26.91555 C388.09035,24.60555 388.14585,23.06505 388.08135,20.22255 L397.62285,20.22255 L397.94835,24.04455 Z" id="Fill-31" fill="#505455"></path>
                    <g id="Group-35">
                        <mask id="mask-4" fill="white">
                            <use xlink:href="#path-3"></use>
                        </mask>
                        <g id="Clip-34"></g>
                        <path d="M30.9273,52.2912 C15.1818,52.2912 2.4753,41.3697 2.4753,27.8427 C2.4753,14.3142 15.1818,3.3927 30.9273,3.3927 C46.6743,3.3927 59.3808,14.3142 59.3808,27.8427 C59.3808,41.3697 46.6743,52.2912 30.9273,52.2912 M0.0003,27.8427 C0.0003,42.7092 13.8438,54.7632 30.9213,54.7632 C47.9973,54.7632 61.8423,42.7092 61.8423,27.8427 C61.8423,12.9747 47.9973,0.9207 30.9213,0.9207 C13.8078,0.9207 0.0003,12.9747 0.0003,27.8427" id="Fill-33" fill="#0090C6" mask="url(#mask-4)"></path>
                    </g>
                    <path d="M34.9146,43.54245 L34.9146,31.65495 C37.1346,36.62445 41.0616,37.72245 44.2431,37.72245 L53.0721,37.72245 L53.0721,32.39445 L46.8921,32.39445 C43.7061,32.39445 42.7086,30.02895 42.7086,28.66845 C42.7086,25.37445 45.3786,22.86795 49.3566,19.34595 L42.3126,19.34595 C39.2661,21.34395 36.2886,24.51045 34.9221,28.06545 L34.9221,11.60445 L26.9226,11.60445 L26.9226,28.06545 C25.5561,24.51045 22.5801,21.34395 19.5336,19.34595 L12.4881,19.34595 C16.4676,22.86795 19.1376,25.37445 19.1376,28.66845 C19.1376,30.02895 18.1401,32.39295 14.9541,32.39295 L8.7741,32.39295 L8.7741,37.72245 L17.6031,37.72245 C20.7846,37.72245 24.7071,36.62445 26.9301,31.65495 L26.9301,43.54245 L34.9146,43.54245 Z M24.3636,46.10295 L24.3636,38.61045 C23.7321,39.03795 22.1631,40.27245 18.9291,40.27245 L6.2241,40.27245 L6.2241,29.82495 L14.0631,29.82495 C16.0251,29.82495 16.1511,28.65645 16.1511,28.30245 C16.1511,25.28445 10.9701,21.10845 5.2191,16.77645 L20.6286,16.74945 C21.5706,17.44245 23.0511,18.49395 24.3726,19.98045 L24.3726,9.00795 L37.4736,9.00795 L37.4736,19.98045 C38.7936,18.49395 40.2741,17.44245 41.2176,16.74945 L56.6271,16.77795 C50.8761,21.10845 45.6951,25.28445 45.6951,28.30245 C45.6951,28.65645 45.8196,29.82495 47.7816,29.82495 L55.6221,29.82495 L55.6221,40.27245 L42.9171,40.27245 C39.6816,40.27245 38.1126,39.03795 37.4811,38.61045 L37.4811,46.10295 L24.3636,46.10295 Z" id="Fill-36" fill="#0090C6"></path>
                </g>
            </g>
        </g>
    </g>
</svg>