<?xml version="1.0" encoding="UTF-8"?>
<svg width="16px" height="16px" viewBox="0 0 16 16" version="1.1" xmlns="http://www.w3.org/2000/svg" xmlns:xlink="http://www.w3.org/1999/xlink">
    <!-- Generator: Sketch 51.2 (57519) - http://www.bohemiancoding.com/sketch -->
    <title>noun_1773652_cc</title>
    <desc>Created with Sketch.</desc>
    <defs></defs>
    <g id="Symbols" stroke="none" stroke-width="1" fill="none" fill-rule="evenodd">
        <g id="btn/icon_btn" transform="translate(-27.000000, -14.000000)" fill="#FFFFFF" fill-rule="nonzero">
            <g id="Group-2-Copy-4">
                <g id="Group" transform="translate(27.000000, 12.000000)">
                    <g id="noun_1773652_cc" transform="translate(0.000000, 2.000000)">
                        <path d="M10.3318234,3.26757085 C10.5122923,3.44803866 10.6801284,3.64113922 10.8371364,3.84145848 C10.7902144,3.78009943 10.7432925,3.72054505 10.6963706,3.659186 C11.0031678,4.05982453 11.257629,4.49655663 11.4561448,4.96035889 C11.4254651,4.88817177 11.3947853,4.81598465 11.3659103,4.7456022 C11.5698402,5.23106061 11.7069966,5.73997983 11.7773795,6.26153179 C11.7665513,6.18212596 11.7557232,6.10091544 11.7448951,6.02150961 C11.8116686,6.53945222 11.8116686,7.06280886 11.7448951,7.58075147 C11.7557232,7.50134563 11.7665513,7.42013512 11.7773795,7.34072928 C11.7069966,7.86228125 11.5698402,8.37120047 11.3659103,8.85665887 C11.39659,8.78447175 11.4272697,8.71228463 11.4561448,8.64190218 C11.2594336,9.10570445 11.0049725,9.54243654 10.6963706,9.94307508 C10.7432925,9.88171602 10.7902144,9.82216165 10.8371364,9.76080259 C10.5249251,10.1650505 10.1603779,10.5277908 9.75793219,10.8400001 C9.81929162,10.7930785 9.87884637,10.7461568 9.9402058,10.6992352 C9.53956479,11.0060305 9.10282999,11.2604901 8.63902485,11.4590047 C8.71121242,11.4283251 8.78339999,11.3976456 8.85378287,11.3687708 C8.36832147,11.5726994 7.8593991,11.7098549 7.33784391,11.7802374 C7.41725023,11.7694093 7.49846125,11.7585812 7.57786758,11.7477532 C7.05992176,11.8145262 6.53656188,11.8145262 6.01861607,11.7477532 C6.09802239,11.7585812 6.17923341,11.7694093 6.25863974,11.7802374 C5.73708454,11.7098549 5.22816217,11.5726994 4.74270077,11.3687708 C4.81488834,11.3994503 4.88707591,11.4301298 4.95745879,11.4590047 C4.49365365,11.2622948 4.05691885,11.0078351 3.65627784,10.6992352 C3.71763727,10.7461568 3.77719202,10.7930785 3.83855145,10.8400001 C3.43430106,10.5277908 3.07155852,10.1632458 2.75934728,9.76080259 C2.8062692,9.82216165 2.85319112,9.88171602 2.90011304,9.94307508 C2.59331587,9.54243654 2.33885469,9.10570445 2.14033887,8.64190218 C2.17101859,8.7140893 2.20169831,8.78627643 2.23057333,8.85665887 C2.02664345,8.37120047 1.88948707,7.86228125 1.81910418,7.34072928 C1.82993232,7.42013512 1.84076046,7.50134563 1.85158859,7.58075147 C1.78481509,7.06280886 1.78481509,6.53945222 1.85158859,6.02150961 C1.84076046,6.10091544 1.82993232,6.18212596 1.81910418,6.26153179 C1.88948707,5.73997983 2.02664345,5.23106061 2.23057333,4.7456022 C2.19989362,4.81778933 2.1692139,4.88997645 2.14033887,4.96035889 C2.33705,4.49655663 2.59151118,4.05982453 2.90011304,3.659186 C2.85319112,3.72054505 2.8062692,3.78009943 2.75934728,3.84145848 C3.07155852,3.43721059 3.43610575,3.0744703 3.83855145,2.76226099 C3.77719202,2.80918262 3.71763727,2.85610425 3.65627784,2.90302588 C4.05691885,2.59623061 4.49365365,2.341771 4.95745879,2.14325641 C4.88527122,2.17393594 4.81308365,2.20461546 4.74270077,2.23349031 C5.22816217,2.02956169 5.73708454,1.89240616 6.25863974,1.82202371 C6.17923341,1.83285178 6.09802239,1.84367985 6.01861607,1.85450792 C6.53656188,1.78773483 7.05992176,1.78773483 7.57786758,1.85450792 C7.49846125,1.84367985 7.41725023,1.83285178 7.33784391,1.82202371 C7.8593991,1.89240616 8.36832147,2.02956169 8.85378287,2.23349031 C8.7815953,2.20281079 8.70940773,2.17213126 8.63902485,2.14325641 C9.10282999,2.33996632 9.53956479,2.59442593 9.9402058,2.90302588 C9.87884637,2.85610425 9.81929162,2.80918262 9.75793219,2.76226099 C9.95825269,2.91926798 10.1513544,3.08710305 10.3318234,3.26757085 C10.4960501,3.43179656 10.7378784,3.53105385 10.9706834,3.53105385 C11.1926601,3.53105385 11.4561448,3.43360124 11.6095434,3.26757085 C11.7665513,3.09612644 11.8838561,2.87054168 11.873028,2.62871481 C11.8621999,2.39049731 11.7809888,2.16310787 11.6095434,1.98985877 C10.6404252,1.02796535 9.36631462,0.338578327 8.01460237,0.112993566 C7.65005515,0.0516345116 7.28009385,0.00832223766 6.91013255,0.00110352533 C6.57085098,-0.006115187 6.23517878,0.0227596623 5.89950658,0.0678766144 C5.56202969,0.112993566 5.22996686,0.172547943 4.90331811,0.268195881 C4.54779433,0.37286721 4.20129399,0.511827423 3.8638171,0.667029738 C3.24119931,0.955778231 2.66730813,1.36002612 2.16379983,1.82382839 C1.6494634,2.29845872 1.20370515,2.86693232 0.862618883,3.47871819 C0.537774819,4.06343389 0.288727702,4.70589928 0.153376009,5.36280211 C0.018024315,6.01970493 -0.0379210517,6.70006857 0.0270477613,7.36960413 C0.0920165742,8.04635841 0.232782336,8.70687059 0.494462277,9.33489856 C0.638837416,9.68139676 0.794040692,10.0206762 0.992556509,10.3401043 C1.19287702,10.666751 1.42748662,10.9753509 1.67653373,11.2677088 C2.13131542,11.7982841 2.68535502,12.2584771 3.28090248,12.6212174 C3.85298897,12.9695202 4.49365365,13.2366126 5.14514647,13.3972289 C6.44632742,13.7184616 7.86661786,13.6643213 9.12448626,13.1896909 C9.47640067,13.0561448 9.82470569,12.9045518 10.1531591,12.71867 C10.4834173,12.5327881 10.7866051,12.309008 11.0843788,12.0743999 C11.6366137,11.6376678 12.1076376,11.0998737 12.4956458,10.515158 C13.2409824,9.39264826 13.6289906,8.01026485 13.5983109,6.663975 C13.5676312,5.31227112 13.1363105,3.94612981 12.3332237,2.85249489 C12.1094423,2.54930898 11.873028,2.25875581 11.6077387,1.99166345 C11.4453166,1.82743774 11.1998789,1.72818045 10.9688787,1.72818045 C10.7469019,1.72818045 10.4834173,1.82563307 10.3300187,1.99166345 C10.1730107,2.16310787 10.0557059,2.38869263 10.066534,2.63051949 C10.0773622,2.868737 10.1585732,3.09432176 10.3318234,3.26757085 Z" id="Shape"></path>
                        <path d="M10.6591877,11.9124605 C11.0894438,12.342821 11.5214704,12.7749526 11.9517264,13.2053131 C12.6387195,13.8924731 13.3257127,14.5796331 14.0127058,15.2667932 C14.1702893,15.4244149 14.3296434,15.5838077 14.4872268,15.7414295 C14.6483515,15.9025933 14.885612,16 15.1140195,16 C15.3318035,16 15.5903112,15.9043643 15.7408123,15.7414295 C15.8948545,15.5731815 16.0099436,15.3518027 15.99932,15.1144845 C15.9886964,14.8789374 15.9090193,14.6575585 15.7408123,14.4875395 C15.3105562,14.057179 14.8785296,13.6250474 14.4482736,13.1946869 C13.7612805,12.5075269 13.0742873,11.8203669 12.3872942,11.1332068 C12.2297107,10.9755851 12.0703566,10.8161923 11.9127732,10.6585705 C11.7516485,10.4974067 11.514388,10.4 11.2859805,10.4 C11.0681965,10.4 10.8096888,10.4956357 10.6591877,10.6585705 C10.5051455,10.8268185 10.3900564,11.0481973 10.40068,11.2855155 C10.409533,11.5210626 10.4892101,11.7424415 10.6591877,11.9124605 Z" id="Shape"></path>
                    </g>
                </g>
            </g>
        </g>
    </g>
</svg>