<?xml version="1.0" encoding="UTF-8"?>
<svg width="40px" height="40px" viewBox="0 0 40 40" version="1.1" xmlns="http://www.w3.org/2000/svg" xmlns:xlink="http://www.w3.org/1999/xlink">
    <!-- Generator: Sketch 51.2 (57519) - http://www.bohemiancoding.com/sketch -->
    <title>Group 5</title>
    <desc>Created with Sketch.</desc>
    <defs></defs>
    <g id="design" stroke="none" stroke-width="1" fill="none" fill-rule="evenodd">
        <g id="main" transform="translate(-40.000000, -324.000000)">
            <g id="Group-5" transform="translate(60.000000, 344.000000) rotate(-180.000000) translate(-60.000000, -344.000000) translate(40.000000, 324.000000)">
                <path d="M4,0 L36,0 C38.209139,-4.05812251e-16 40,1.790861 40,4 L40,36 C40,38.209139 38.209139,40 36,40 L4,40 C1.790861,40 2.705415e-16,38.209139 0,36 L0,4 C-2.705415e-16,1.790861 1.790861,4.05812251e-16 4,0 Z" id="Rectangle" fill="#FFFFFF"></path>
                <path d="M15,23 L22,23 C22.5522847,23 23,23.4477153 23,24 C23,24.5522847 22.5522847,25 22,25 L14,25 C13.4477153,25 13,24.5522847 13,24 L13,16 C13,15.4477153 13.4477153,15 14,15 C14.5522847,15 15,15.4477153 15,16 L15,23 Z" id="Combined-Shape" fill="#D82084" transform="translate(18.000000, 20.000000) scale(-1, 1) rotate(-315.000000) translate(-18.000000, -20.000000) "></path>
            </g>
        </g>
    </g>
</svg>