<?xml version="1.0" encoding="UTF-8"?>
<svg width="36px" height="36px" viewBox="0 0 36 36" version="1.1" xmlns="http://www.w3.org/2000/svg" xmlns:xlink="http://www.w3.org/1999/xlink">
    <!-- Generator: Sketch 51.2 (57519) - http://www.bohemiancoding.com/sketch -->
    <title>like</title>
    <desc>Created with Sketch.</desc>
    <defs></defs>
    <g id="Product---machine" stroke="none" stroke-width="1" fill="none" fill-rule="evenodd">
        <g id="03.1---ProductСard-Machine-lifestyle" transform="translate(-648.000000, -684.000000)">
            <g id="card" transform="translate(-221.000000, 274.000000)">
                <g id="Текстовый-блок" transform="translate(860.000000, 231.000000)">
                    <g id="Добавить-(Избранное,-Share)" transform="translate(0.000000, 87.000000)">
                        <g id="like" transform="translate(9.000000, 92.000000)">
                            <circle id="Oval" stroke="#DFE2EA" stroke-width="3" cx="18" cy="18" r="16.5"></circle>
                            <path d="M18.2900178,13.3582524 C17.1483915,12.3291262 15.6405832,11.3 14.154315,11.3 C12.6680468,11.3 11.1602385,11.8048544 10.0186123,12.8339806 C7.7353597,14.892233 7.7353597,18.2708738 10.0186123,20.3291262 L18.2900178,27.3 L26.6045035,20.3291262 C27.7461298,19.3 28.3061728,17.9407767 28.3061728,16.6009709 C28.3061728,15.261165 27.7461298,13.9019417 26.6045035,12.8728155 C25.613658,11.9407767 24.3212509,11.5330097 23.0288438,11.5330097 C21.3271745,11.5330097 19.5824249,12.1932039 18.2900178,13.3582524 Z" id="Page-1" fill="#A8ABB3"></path>
                        </g>
                    </g>
                </g>
            </g>
        </g>
    </g>
</svg>