<?xml version="1.0" encoding="UTF-8"?>
<svg width="35px" height="50px" viewBox="0 0 35 50" version="1.1" xmlns="http://www.w3.org/2000/svg" xmlns:xlink="http://www.w3.org/1999/xlink">
    <!-- Generator: Sketch 51.2 (57519) - http://www.bohemiancoding.com/sketch -->
    <title>placeholder</title>
    <desc>Created with Sketch.</desc>
    <defs></defs>
    <g id="design" stroke="none" stroke-width="1" fill="none" fill-rule="evenodd">
        <g id="about_company" transform="translate(-782.000000, -872.000000)" fill="#5FB422" fill-rule="nonzero">
            <g id="placeholder" transform="translate(782.000000, 872.000000)">
                <path d="M17.5511538,10.9090909 C14.0879487,10.9090909 11.2691026,13.7645455 11.2691026,17.2727273 C11.2691026,20.7809091 14.0879487,23.6363636 17.5511538,23.6363636 C21.014359,23.6363636 23.8332051,20.7809091 23.8332051,17.2727273 C23.8332051,13.7645455 21.014359,10.9090909 17.5511538,10.9090909 Z M17.5511538,21.8181818 C15.0769231,21.8181818 13.0639744,19.7790909 13.0639744,17.2727273 C13.0639744,14.7663636 15.0769231,12.7272727 17.5511538,12.7272727 C20.0253846,12.7272727 22.0383333,14.7663636 22.0383333,17.2727273 C22.0383333,19.7790909 20.0253846,21.8181818 17.5511538,21.8181818 Z" id="Shape"></path>
                <path d="M29.5615385,5.10636364 C26.3110256,1.81363636 21.9889744,0 17.3923077,0 C12.7947436,0 8.47358974,1.81363636 5.22307692,5.10636364 C-0.792435897,11.1990909 -1.54,22.6627273 3.60410256,29.6081818 L17.3923077,49.7790909 L31.1598718,29.6363636 C36.3246154,22.6627273 35.5770513,11.1990909 29.5615385,5.10636364 Z M29.7042308,28.5736364 L17.3923077,46.5845455 L5.06064103,28.5454545 C0.394871795,22.2436364 1.06346154,11.8909091 6.49294872,6.39181818 C9.40423077,3.44272727 13.2748718,1.81818182 17.3923077,1.81818182 C21.5097436,1.81818182 25.3803846,3.44272727 28.2925641,6.39181818 C33.7220513,11.8909091 34.390641,22.2436364 29.7042308,28.5736364 Z" id="Shape"></path>
            </g>
        </g>
    </g>
</svg>