<?xml version="1.0" encoding="UTF-8"?>
<svg width="19px" height="13px" viewBox="0 0 19 13" version="1.1" xmlns="http://www.w3.org/2000/svg" xmlns:xlink="http://www.w3.org/1999/xlink">
    <!-- Generator: Sketch 51.2 (57519) - http://www.bohemiancoding.com/sketch -->
    <title>right-arrow</title>
    <desc>Created with Sketch.</desc>
    <defs></defs>
    <g id="Symbols" stroke="none" stroke-width="1" fill="none" fill-rule="evenodd">
        <g id="btn/read_more_icon" transform="translate(-177.000000, -3.000000)" fill="#5FB422">
            <g id="right-arrow" transform="translate(177.000000, 3.000000)">
                <g id="Shape">
                    <path d="M12.723,0.577930435 C12.4656,0.323113043 12.0372,0.323113043 11.7708,0.577930435 C11.5134,0.82413913 11.5134,1.23391304 11.7708,1.47954783 L16.599,6.09782609 L0.6666,6.09782609 C0.2952,6.0984 0,6.38076522 0,6.73601739 C0,7.09126957 0.2952,7.38281739 0.6666,7.38281739 L16.599,7.38281739 L11.7708,11.992487 C11.5134,12.2473043 11.5134,12.6576522 11.7708,12.903287 C12.0372,13.1581043 12.4662,13.1581043 12.723,12.903287 L18.6942,7.19170435 C18.9606,6.94549565 18.9606,6.53572174 18.6942,6.29008696 L12.723,0.577930435 Z" fill-rule="nonzero"></path>
                </g>
            </g>
        </g>
    </g>
</svg>