<?xml version="1.0" encoding="UTF-8"?>
<svg width="12px" height="7px" viewBox="0 0 12 7" version="1.1" xmlns="http://www.w3.org/2000/svg" xmlns:xlink="http://www.w3.org/1999/xlink">
    <!-- Generator: Sketch 48.2 (47327) - http://www.bohemiancoding.com/sketch -->
    <title>arrow</title>
    <desc>Created with Sketch.</desc>
    <defs></defs>
    <g id="03.1---ProductCatalog" stroke="none" stroke-width="1" fill="none" fill-rule="evenodd" transform="translate(-222.000000, -429.000000)">
        <g id="Customers_way_menu_1" transform="translate(0.000000, 404.000000)" fill="#A8ABB3">
            <g id="arrow" transform="translate(222.500000, 25.000000)">
                <path d="M7.96363333,0.115048799 C7.82668333,-0.0273459375 7.60466667,-0.0437406744 7.44498333,0.100680378 C7.30235,0.229627747 7.29868333,0.481443536 7.43086667,0.621627747 L9.78541667,3.13149617 L0.366666667,3.13149617 C0.164083333,3.13149617 0,3.29636459 0,3.49991722 C0,3.70346985 0.164083333,3.86833827 0.366666667,3.86833827 L9.78541667,3.86833827 L7.43086667,6.37820669 C7.29886667,6.5183909 7.30821667,6.76394354 7.44516667,6.89915406 C7.58963333,7.04210143 7.8287,7.0293909 7.96363333,6.88478564 L10.8969667,3.75320669 C11.04565,3.58391722 11.02255,3.39141722 10.8969667,3.24662775 L7.96363333,0.115048799 Z" id="Fill-1"></path>
            </g>
        </g>
    </g>
</svg>