<svg width="215" height="29" viewBox="0 0 215 29" fill="none" xmlns="http://www.w3.org/2000/svg">
<path fill-rule="evenodd" clip-rule="evenodd" d="M59.3657 4.23138H63.8888L63.6598 7.5101H59.1367L59.3657 4.23138Z" fill="#505455"/>
<path fill-rule="evenodd" clip-rule="evenodd" d="M182.124 20.0244C184.36 20.0244 184.502 17.9423 184.622 16.2517C183.613 16.2517 182.659 16.2008 181.982 16.5289C181.252 16.8828 180.707 17.4896 180.645 18.3729C180.582 19.2812 181.218 20.0244 182.124 20.0244ZM184.202 20.8863H184.152C183.124 21.8403 182.154 22.5363 180.306 22.5363C177.308 22.5363 176.048 20.8266 176.048 18.5859C176.048 16.0615 178.631 14.4402 183.216 14.4402H184.73C184.808 13.3298 185.193 11.4991 183.293 11.4991C181.946 11.4991 181.618 12.782 181.59 13.4006H177.233C177.332 11.7476 178.045 10.6431 179.372 10.0629C180.725 9.45758 182.371 9.30569 183.783 9.30569C186.353 9.30569 189.507 10.5878 189.294 13.7287L188.936 19.8224C188.9 20.3525 188.893 20.9077 188.963 22.4213H184.446L184.202 20.8863Z" fill="#505455"/>
<mask id="mask0_22:126" style="mask-type:alpha" maskUnits="userSpaceOnUse" x="199" y="4" width="16" height="19">
<path d="M199.436 4.23022H214.685V22.4353H199.436V4.23022Z" fill="white"/>
</mask>
<g mask="url(#mask0_22:126)">
<path fill-rule="evenodd" clip-rule="evenodd" d="M204.718 15.3699L209.248 9.7245H214.685L209.807 15.0927L214.43 22.4353H208.538L204.718 15.3699ZM199.436 22.4353L200.709 4.23022H205.498L204.224 22.4353H199.436Z" fill="#505455"/>
</g>
<path fill-rule="evenodd" clip-rule="evenodd" d="M121.798 11.6118H121.848C123.077 10.0281 124.492 9.76412 126.051 9.76412L125.767 13.8273C125.445 13.8022 125.118 13.8022 124.789 13.8022C121.633 13.8022 121.537 15.613 121.419 17.7106L121.135 22.4352H116.222L116.878 13.0229C116.958 11.8875 116.986 11.1303 116.955 9.73315H121.638L121.798 11.6118Z" fill="#505455"/>
<path fill-rule="evenodd" clip-rule="evenodd" d="M125.699 22.4353L126.972 4.23022H131.607L130.335 22.4353H125.699Z" fill="#505455"/>
<path fill-rule="evenodd" clip-rule="evenodd" d="M92.1649 16.2634C92.0913 17.8117 92.4793 19.9978 94.214 19.9978C96.4185 19.9978 96.9612 17.7977 97.0422 16.0378C97.1143 14.4814 96.808 12.1722 94.9378 12.1781C92.5485 12.1855 92.2444 14.5809 92.1649 16.2634ZM88.3671 4.2294H93.1132L92.6045 11.4865H92.6965C93.6574 10.3504 94.9908 9.40221 96.6998 9.40221C100.581 9.40221 102.076 12.8225 101.865 15.9125C101.65 19.0482 100.013 22.6181 95.6793 22.6181C94.2177 22.6181 92.7989 21.813 92.1413 20.8722H92.0412L91.757 22.4205H87.0947L88.3671 4.2294Z" fill="#505455"/>
<path fill-rule="evenodd" clip-rule="evenodd" d="M111.612 14.5203C111.659 13.8391 111.506 13.1578 111.165 12.6277C110.824 12.0976 110.306 11.7702 109.572 11.8204C107.903 11.8956 107.459 13.0819 107.232 14.5203H111.612ZM107.008 16.9135C106.868 18.6653 107.267 20.078 109.056 20.078C110.392 20.078 111.235 19.1873 111.235 18.3586H115.671C115.571 19.9018 114.497 21.1013 113.238 21.8077C112.08 22.5147 110.752 22.6393 109.328 22.6393C104.161 22.6393 102.163 20.4931 102.483 15.6786C102.748 11.6655 105.976 9.29294 109.781 9.35339C114.873 9.43449 116.51 12.4353 116.024 16.9135H107.008Z" fill="#505455"/>
<path fill-rule="evenodd" clip-rule="evenodd" d="M40.5211 4.23138H45.849L44.5723 22.4313H39.2451L40.5211 4.23138Z" fill="#505455"/>
<path fill-rule="evenodd" clip-rule="evenodd" d="M51.7452 4.23138L45.377 12.3172L51.0516 22.4313H57.4339L51.0722 12.0525L57.7667 4.23138H51.7452Z" fill="#505455"/>
<path fill-rule="evenodd" clip-rule="evenodd" d="M58.9251 9.73297H63.4482L62.5602 22.4313H58.0371L58.9251 9.73297Z" fill="#505455"/>
<path fill-rule="evenodd" clip-rule="evenodd" d="M69.1713 9.73182L69.1698 11.4475H69.2206C70.6321 9.59764 72.5745 9.43175 73.768 9.43175C75.4969 9.43175 77.264 10.3895 77.6211 11.6746C78.5989 10.1558 80.3432 9.40668 82.2679 9.3558C85.0334 9.3558 86.9567 11.1275 86.7579 13.9366L86.1563 22.4309H81.2908L81.8188 14.9747C81.8836 13.7655 81.7864 12.3927 80.1974 12.3927C77.867 12.3927 77.9583 14.9997 77.934 15.1516L77.4348 22.4346H72.5553L73.0951 14.9747C73.1179 13.7346 72.9566 12.3927 71.4133 12.3927C68.9541 12.3927 69.0064 14.9997 69.0093 15.1516L68.5035 22.4375H63.4863L64.3677 9.73256L69.1713 9.73182Z" fill="#505455"/>
<path fill-rule="evenodd" clip-rule="evenodd" d="M137.753 28.5475H133.351L136.188 22.6433L131.54 9.73636H136.938L139.033 17.6172L142.362 9.73636H146.816L137.753 28.5475Z" fill="#505455"/>
<path fill-rule="evenodd" clip-rule="evenodd" d="M146.957 12.2893H153.089L151.129 16.2626H144.997L146.957 12.2893Z" fill="#505455"/>
<path fill-rule="evenodd" clip-rule="evenodd" d="M162.933 3.74536C166.68 3.74536 170.509 5.38509 170.343 9.94153H165.181C165.181 8.74712 164.486 7.38535 162.739 7.38535C160.99 7.38535 158.937 8.69109 158.578 12.4697C158.217 16.249 158.688 19.1104 161.74 19.1104C164.376 19.1104 164.904 16.8322 164.958 16.3876H170.079C170.079 18.4159 168.4 22.6118 161.462 22.6118C154.137 22.6118 152.832 17.2768 153.442 12.3031C153.954 8.13886 156.912 3.74536 162.933 3.74536Z" fill="#505455"/>
<path fill-rule="evenodd" clip-rule="evenodd" d="M170.439 22.4353L171.713 4.23022H176.347L175.074 22.4353H170.439Z" fill="#505455"/>
<path fill-rule="evenodd" clip-rule="evenodd" d="M195.34 11.6118H195.39C196.62 10.0281 198.035 9.76412 199.622 9.76412L199.338 13.8273C198.987 13.8022 198.659 13.8022 198.332 13.8022C195.176 13.8022 195.079 15.613 194.961 17.7106L194.677 22.4352H189.765L190.421 13.0229C190.501 11.8875 190.528 11.1303 190.497 9.73315H195.18L195.34 11.6118Z" fill="#505455"/>
<mask id="mask1_22:126" style="mask-type:alpha" maskUnits="userSpaceOnUse" x="0" y="0" width="31" height="27">
<path d="M0 0.245972H30.3562V26.7108H0V0.245972Z" fill="white"/>
</mask>
<g mask="url(#mask1_22:126)">
<path fill-rule="evenodd" clip-rule="evenodd" d="M15.1811 25.4956C7.45211 25.4956 1.2149 20.1274 1.2149 13.4785C1.2149 6.82891 7.45211 1.46072 15.1811 1.46072C22.9108 1.46072 29.148 6.82891 29.148 13.4785C29.148 20.1274 22.9108 25.4956 15.1811 25.4956ZM0 13.4785C0 20.7858 6.79533 26.7106 15.1781 26.7106C23.5602 26.7106 30.3562 20.7858 30.3562 13.4785C30.3562 6.17051 23.5602 0.245667 15.1781 0.245667C6.77765 0.245667 0 6.17051 0 13.4785Z" fill="#0090C6"/>
</g>
<path fill-rule="evenodd" clip-rule="evenodd" d="M17.1381 21.1955V15.3525C18.2278 17.7951 20.1554 18.3348 21.7171 18.3348H26.051V15.7159H23.0175C21.4535 15.7159 20.9639 14.5532 20.9639 13.8845C20.9639 12.2654 22.2745 11.0334 24.2272 9.30228H20.7695C19.2741 10.2843 17.8125 11.8408 17.1418 13.5881V5.49713H13.2151V13.5881C12.5443 11.8408 11.0835 10.2843 9.58805 9.30228H6.12964C8.08305 11.0334 9.39366 12.2654 9.39366 13.8845C9.39366 14.5532 8.90402 15.7152 7.34012 15.7152H4.30656V18.3348H8.64043C10.2021 18.3348 12.1276 17.7951 13.2188 15.3525V21.1955H17.1381ZM11.9589 22.454V18.7713C11.649 18.9814 10.8788 19.5882 9.29132 19.5882H3.05485V14.453H6.90276C7.86584 14.453 7.92769 13.8786 7.92769 13.7046C7.92769 12.2212 5.3845 10.1686 2.56152 8.0393L10.1255 8.02603C10.5879 8.36666 11.3147 8.8835 11.9634 9.61415V4.22089H18.3942V9.61415C19.0422 8.8835 19.7689 8.36666 20.232 8.02603L27.796 8.04004C24.9731 10.1686 22.4299 12.2212 22.4299 13.7046C22.4299 13.8786 22.491 14.453 23.4541 14.453H27.3027V19.5882H21.0663C19.478 19.5882 18.7079 18.9814 18.3979 18.7713V22.454H11.9589Z" fill="#0090C6"/>
</svg>
