<?xml version="1.0" encoding="UTF-8"?>
<!DOCTYPE svg PUBLIC "-//W3C//DTD SVG 1.1//EN" "http://www.w3.org/Graphics/SVG/1.1/DTD/svg11.dtd">
<svg xmlns="http://www.w3.org/2000/svg" xmlns:xlink="http://www.w3.org/1999/xlink">
	<symbol id="search" viewBox="0 0 17 17">
    <g>
			<circle cx="6.85714" cy="6.85714" r="5.85714" stroke-width="2"/>
			<path d="M10.2861 10.2856L16.0004 15.9999" stroke-width="2"/>
    </g>
  </symbol>
	<symbol id="heart" viewBox="0 0 18 16">
		<path fill-rule="evenodd" clip-rule="evenodd" d="M12.7 0C15.87 0 18 2.98 18 5.76C18 11.39 9.16 16 9 16C8.84 16 0 11.39 0 5.76C0 2.98 2.13 0 5.3 0C7.12 0 8.31 0.91 9 1.71C9.69 0.91 10.88 0 12.7 0Z"/>
  </symbol>
	<symbol id="chat" viewBox="0 0 18 18">
		<path fill-rule="evenodd" clip-rule="evenodd" d="M10 14H15C16.657 14 18 12.657 18 11V3C18 1.343 16.657 0 15 0H3C1.343 0 0 1.343 0 3V11C0 12.657 1.343 14 3 14H5V18L10 14Z"/>
	</symbol>
	<symbol id="b-heart" viewBox="0 0 30 28">
		<path fill-rule="evenodd" clip-rule="evenodd" d="M20.7556 2C25.6867 2 29 6.63556 29 10.96C29 19.7178 15.2489 26.8889 15 26.8889C14.7511 26.8889 1 19.7178 1 10.96C1 6.63556 4.31333 2 9.24444 2C12.0756 2 13.9267 3.41556 15 4.66C16.0733 3.41556 17.9244 2 20.7556 2Z" stroke-width="2" stroke-linecap="round" stroke-linejoin="round"/>
	</symbol>
	<symbol id="like" viewBox="0 0 17 15">
		<g clip-path="url(#clip0_191:540)">
			<path d="M0.0955888 8.1875L1.60737 13.6396C1.71589 14.031 1.94519 14.3754 2.26063 14.6208C2.57608 14.8663 2.96054 14.9993 3.35595 15H11.5362C11.6972 15 11.8516 14.9342 11.9655 14.8169C12.0794 14.6997 12.1433 14.5408 12.1433 14.375V5.625C12.1435 5.49072 12.1016 5.35996 12.0239 5.25208L8.7494 0.727081C8.51374 0.417164 8.19004 0.19063 7.8234 0.0790386C7.45676 -0.0325527 7.06544 -0.0236444 6.70396 0.104523C6.34247 0.23269 6.02881 0.473733 5.80669 0.794072C5.58457 1.11441 5.46504 1.49809 5.46476 1.89167V5H2.42904C2.05321 5.00024 1.68256 5.09026 1.34627 5.26299C1.00997 5.43572 0.717208 5.68643 0.491019 5.99541C0.264831 6.30438 0.111389 6.66318 0.0427725 7.04356C-0.0258446 7.42395 -0.00776481 7.81553 0.0955888 8.1875Z"/>
			<path d="M13.9646 5H16.3931C16.5542 5 16.7086 5.06585 16.8225 5.18306C16.9363 5.30027 17.0003 5.45924 17.0003 5.625V14.375C17.0003 14.5408 16.9363 14.6997 16.8225 14.8169C16.7086 14.9342 16.5542 15 16.3931 15H13.9646C13.8035 15 13.6491 14.9342 13.5352 14.8169C13.4214 14.6997 13.3574 14.5408 13.3574 14.375V5.625C13.3574 5.45924 13.4214 5.30027 13.5352 5.18306C13.6491 5.06585 13.8035 5 13.9646 5Z"/>
		</g>
		<defs>
			<clipPath id="clip0_191:540">
				<rect width="17" height="15" fill="white" transform="matrix(1 0 0 -1 0 15)"/>
			</clipPath>
		</defs>
	</symbol>
	<symbol id="drops" viewBox="0 0 9 12">
		<path d="M4.02785 12C7.11119 12 9.02785 8.66667 7.48619 6L4.02785 0L0.569519 6C-0.972148 8.66667 0.944519 12 4.02785 12Z"/>
	</symbol>
</svg>
