<?xml version="1.0" encoding="UTF-8"?>
<!DOCTYPE svg PUBLIC "-//W3C//DTD SVG 1.1//EN" "http://www.w3.org/Graphics/SVG/1.1/DTD/svg11.dtd">
<svg xmlns="http://www.w3.org/2000/svg" xmlns:xlink="http://www.w3.org/1999/xlink">
	<symbol id="search" viewBox="0 0 17 17">
    <g>
			<circle cx="6.85714" cy="6.85714" r="5.85714" stroke-width="2"/>
			<path d="M10.2861 10.2856L16.0004 15.9999" stroke-width="2"/>
    </g>
  </symbol>
	<symbol id="heart" viewBox="0 0 18 16">
		<path fill-rule="evenodd" clip-rule="evenodd" d="M12.7 0C15.87 0 18 2.98 18 5.76C18 11.39 9.16 16 9 16C8.84 16 0 11.39 0 5.76C0 2.98 2.13 0 5.3 0C7.12 0 8.31 0.91 9 1.71C9.69 0.91 10.88 0 12.7 0Z"/>
  </symbol>
	<symbol id="chat" viewBox="0 0 18 18">
		<path fill-rule="evenodd" clip-rule="evenodd" d="M10 14H15C16.657 14 18 12.657 18 11V3C18 1.343 16.657 0 15 0H3C1.343 0 0 1.343 0 3V11C0 12.657 1.343 14 3 14H5V18L10 14Z"/>
	</symbol>
	<symbol id="b-heart" viewBox="0 0 30 28">
		<path fill-rule="evenodd" clip-rule="evenodd" d="M20.7556 2C25.6867 2 29 6.63556 29 10.96C29 19.7178 15.2489 26.8889 15 26.8889C14.7511 26.8889 1 19.7178 1 10.96C1 6.63556 4.31333 2 9.24444 2C12.0756 2 13.9267 3.41556 15 4.66C16.0733 3.41556 17.9244 2 20.7556 2Z" stroke-width="2" stroke-linecap="round" stroke-linejoin="round"/>
	</symbol>
</svg>
