<svg width="215" height="29" viewBox="0 0 215 29" fill="none" xmlns="http://www.w3.org/2000/svg"><path fill-rule="evenodd" clip-rule="evenodd" d="M59.366 4.231h4.523l-.23 3.28h-4.522l.229-3.28zm122.758 15.793c2.236 0 2.378-2.082 2.498-3.772-1.009 0-1.963-.051-2.64.277-.73.354-1.275.96-1.337 1.844-.063.908.573 1.651 1.479 1.651zm2.078.862h-.05c-1.028.954-1.998 1.65-3.846 1.65-2.998 0-4.258-1.71-4.258-3.95 0-2.524 2.583-4.146 7.168-4.146h1.514c.078-1.11.463-2.94-1.437-2.94-1.347 0-1.675 1.282-1.703 1.9h-4.357c.099-1.652.812-2.757 2.139-3.337 1.353-.605 2.999-.757 4.411-.757 2.57 0 5.724 1.282 5.511 4.423l-.358 6.093c-.036.53-.043 1.086.027 2.6h-4.517l-.244-1.536z" fill="#505455"/><mask id="mask0_22:126" style="mask-type:alpha" maskUnits="userSpaceOnUse" x="199" y="4" width="16" height="19"><path d="M199.436 4.23h15.249v18.205h-15.249V4.23z" fill="#fff"/></mask><g mask="url(#mask0_22:126)"><path fill-rule="evenodd" clip-rule="evenodd" d="M204.718 15.37l4.53-5.645h5.437l-4.878 5.368 4.623 7.342h-5.892l-3.82-7.065zm-5.282 7.065l1.273-18.205h4.789l-1.274 18.205h-4.788z" fill="#505455"/></g><path fill-rule="evenodd" clip-rule="evenodd" d="M121.798 11.612h.05c1.229-1.584 2.644-1.848 4.203-1.848l-.284 4.063c-.322-.025-.649-.025-.978-.025-3.156 0-3.252 1.811-3.37 3.909l-.284 4.724h-4.913l.656-9.412a30.74 30.74 0 00.077-3.29h4.683l.16 1.879zm3.901 10.823l1.273-18.205h4.635l-1.272 18.205h-4.636zm-33.534-6.172c-.074 1.549.314 3.735 2.049 3.735 2.204 0 2.747-2.2 2.828-3.96.072-1.557-.234-3.866-2.104-3.86-2.39.007-2.694 2.403-2.773 4.085zM88.367 4.23h4.746l-.508 7.257h.091c.961-1.136 2.295-2.084 4.004-2.084 3.881 0 5.376 3.42 5.165 6.51-.215 3.136-1.852 6.706-6.186 6.706-1.461 0-2.88-.805-3.538-1.746h-.1l-.284 1.549h-4.662L88.367 4.23zm23.245 10.29c.047-.68-.106-1.362-.447-1.892-.341-.53-.859-.858-1.593-.808-1.669.076-2.113 1.262-2.34 2.7h4.38zm-4.604 2.393c-.14 1.752.259 3.165 2.048 3.165 1.336 0 2.179-.89 2.179-1.72h4.436c-.1 1.544-1.174 2.743-2.433 3.45-1.158.707-2.486.831-3.91.831-5.167 0-7.165-2.146-6.845-6.96.265-4.014 3.493-6.386 7.298-6.326 5.092.081 6.729 3.082 6.243 7.56h-9.016zM40.521 4.231h5.328l-1.277 18.2h-5.327l1.276-18.2zm11.224 0l-6.368 8.086 5.675 10.114h6.382l-6.362-10.379 6.695-7.82h-6.022zm7.18 5.502h4.523l-.888 12.698h-4.523l.888-12.698zm10.246-.001l-.001 1.716h.05c1.412-1.85 3.355-2.016 4.548-2.016 1.729 0 3.496.957 3.853 2.243.978-1.52 2.722-2.268 4.647-2.32 2.765 0 4.689 1.772 4.49 4.582l-.602 8.494h-4.865l.528-7.456c.065-1.21-.033-2.582-1.622-2.582-2.33 0-2.239 2.607-2.263 2.759l-.5 7.283h-4.879l.54-7.46c.023-1.24-.138-2.582-1.682-2.582-2.459 0-2.407 2.607-2.404 2.759l-.505 7.286h-5.018l.882-12.705 4.803-.001zm68.582 18.815h-4.402l2.837-5.904-4.648-12.907h5.398l2.095 7.881 3.329-7.88h4.454l-9.063 18.81zm9.204-16.257h6.132l-1.96 3.973h-6.132l1.96-3.974zm15.976-8.545c3.747 0 7.576 1.64 7.41 6.197h-5.162c0-1.195-.695-2.557-2.442-2.557-1.749 0-3.802 1.306-4.161 5.085-.361 3.779.11 6.64 3.162 6.64 2.636 0 3.164-2.278 3.218-2.722h5.121c0 2.028-1.679 6.224-8.617 6.224-7.325 0-8.63-5.335-8.02-10.309.512-4.164 3.47-8.558 9.491-8.558zm7.506 18.69l1.274-18.205h4.634l-1.273 18.205h-4.635zm24.901-10.823h.05c1.23-1.584 2.645-1.848 4.232-1.848l-.284 4.063c-.351-.025-.679-.025-1.006-.025-3.156 0-3.253 1.811-3.371 3.909l-.284 4.724h-4.912l.656-9.412a30.76 30.76 0 00.076-3.29h4.683l.16 1.879z" fill="#505455"/><mask id="mask1_22:126" style="mask-type:alpha" maskUnits="userSpaceOnUse" x="0" y="0" width="31" height="27"><path d="M0 .246h30.356v26.465H0V.246z" fill="#fff"/></mask><g mask="url(#mask1_22:126)"><path fill-rule="evenodd" clip-rule="evenodd" d="M15.181 25.496c-7.729 0-13.966-5.369-13.966-12.017 0-6.65 6.237-12.018 13.966-12.018 7.73 0 13.967 5.368 13.967 12.018 0 6.648-6.237 12.017-13.967 12.017zM0 13.479C0 20.785 6.795 26.71 15.178 26.71c8.382 0 15.178-5.925 15.178-13.232C30.356 6.17 23.56.245 15.178.245 6.778.246 0 6.17 0 13.478z" fill="#0090C6"/></g><path fill-rule="evenodd" clip-rule="evenodd" d="M17.138 21.195v-5.843c1.09 2.443 3.017 2.983 4.58 2.983h4.333v-2.62h-3.034c-1.564 0-2.053-1.162-2.053-1.83 0-1.62 1.31-2.852 3.263-4.583H20.77c-1.496.982-2.957 2.539-3.628 4.286v-8.09h-3.927v8.09c-.67-1.747-2.131-3.304-3.627-4.286H6.13c1.953 1.731 3.264 2.963 3.264 4.582 0 .67-.49 1.831-2.054 1.831H4.307v2.62H8.64c1.562 0 3.488-.54 4.579-2.983v5.843h3.92zm-5.18 1.259v-3.683c-.309.21-1.08.817-2.667.817H3.055v-5.135h3.848c.963 0 1.025-.574 1.025-.748 0-1.484-2.543-3.536-5.366-5.666l7.564-.013c.462.34 1.189.857 1.837 1.588V4.221h6.431v5.393c.648-.73 1.375-1.247 1.838-1.588l7.564.014c-2.823 2.129-5.366 4.181-5.366 5.665 0 .174.061.748 1.024.748h3.849v5.135h-6.237c-1.588 0-2.358-.607-2.668-.817v3.683h-6.44z" fill="#0090C6"/></svg>