<svg xmlns="http://www.w3.org/2000/svg"><symbol id="search" viewBox="0 0 17 17"><g stroke-width="2"><circle cx="6.857" cy="6.857" r="5.857"/><path d="M10.286 10.286L16 16"/></g></symbol><symbol id="heart" viewBox="0 0 18 16"><path fill-rule="evenodd" clip-rule="evenodd" d="M12.7 0C15.87 0 18 2.98 18 5.76 18 11.39 9.16 16 9 16c-.16 0-9-4.61-9-10.24C0 2.98 2.13 0 5.3 0 7.12 0 8.31.91 9 1.71 9.69.91 10.88 0 12.7 0z"/></symbol><symbol id="chat" viewBox="0 0 18 18"><path fill-rule="evenodd" clip-rule="evenodd" d="M10 14h5a3 3 0 003-3V3a3 3 0 00-3-3H3a3 3 0 00-3 3v8a3 3 0 003 3h2v4l5-4z"/></symbol><symbol id="b-heart" viewBox="0 0 30 28"><path fill-rule="evenodd" clip-rule="evenodd" d="M20.756 2C25.686 2 29 6.636 29 10.96c0 8.758-13.751 15.929-14 15.929-.249 0-14-7.171-14-15.929C1 6.636 4.313 2 9.244 2 12.076 2 13.927 3.416 15 4.66 16.073 3.416 17.924 2 20.756 2z" stroke-width="2" stroke-linecap="round" stroke-linejoin="round"/></symbol><symbol id="like" viewBox="0 0 17 15"><g clip-path="url(#clip0_191:540)"><path d="M.096 8.188l1.511 5.452c.109.391.338.735.654.98.315.246.7.38 1.095.38h8.18a.598.598 0 00.43-.183.634.634 0 00.177-.442v-8.75a.637.637 0 00-.12-.373L8.75.727A1.837 1.837 0 007.823.08a1.788 1.788 0 00-1.119.026 1.836 1.836 0 00-.897.69 1.93 1.93 0 00-.342 1.097V5H2.429c-.376 0-.746.09-1.083.263a2.448 2.448 0 00-.855.732 2.571 2.571 0 00-.395 2.192zM13.965 5h2.428c.161 0 .316.066.43.183a.635.635 0 01.177.442v8.75a.635.635 0 01-.177.442.598.598 0 01-.43.183h-2.428a.598.598 0 01-.43-.183.635.635 0 01-.178-.442v-8.75c0-.166.064-.325.178-.442a.599.599 0 01.43-.183z"/></g><defs><clipPath id="clip0_191:540"><path fill="#fff" transform="matrix(1 0 0 -1 0 15)" d="M0 0h17v15H0z"/></clipPath></defs></symbol><symbol id="drops" viewBox="0 0 9 12"><path d="M4.028 12c3.083 0 5-3.333 3.458-6L4.028 0 .57 6c-1.542 2.667.375 6 3.458 6z"/></symbol></svg>