<svg xmlns="http://www.w3.org/2000/svg"><symbol id="search" viewBox="0 0 17 17"><g stroke-width="2"><circle cx="6.857" cy="6.857" r="5.857"/><path d="M10.286 10.286L16 16"/></g></symbol><symbol id="heart" viewBox="0 0 18 16"><path fill-rule="evenodd" clip-rule="evenodd" d="M12.7 0C15.87 0 18 2.98 18 5.76 18 11.39 9.16 16 9 16c-.16 0-9-4.61-9-10.24C0 2.98 2.13 0 5.3 0 7.12 0 8.31.91 9 1.71 9.69.91 10.88 0 12.7 0z"/></symbol><symbol id="chat" viewBox="0 0 18 18"><path fill-rule="evenodd" clip-rule="evenodd" d="M10 14h5a3 3 0 003-3V3a3 3 0 00-3-3H3a3 3 0 00-3 3v8a3 3 0 003 3h2v4l5-4z"/></symbol><symbol id="b-heart" viewBox="0 0 30 28"><path fill-rule="evenodd" clip-rule="evenodd" d="M20.756 2C25.686 2 29 6.636 29 10.96c0 8.758-13.751 15.929-14 15.929-.249 0-14-7.171-14-15.929C1 6.636 4.313 2 9.244 2 12.076 2 13.927 3.416 15 4.66 16.073 3.416 17.924 2 20.756 2z" stroke-width="2" stroke-linecap="round" stroke-linejoin="round"/></symbol><symbol id="quote" viewBox="0 0 19 15"><circle cx="4" cy="11" r="4"/><path d="M1 11C1 5.5 2 3 5 1" stroke-width="2" stroke-linecap="round" stroke-linejoin="round"/><circle cx="15" cy="11" r="4"/><path d="M12 11c0-5.5 1-8 4-10" stroke-width="2" stroke-linecap="round" stroke-linejoin="round"/></symbol></svg>